<svg xmlns="http://www.w3.org/2000/svg" width="63" height="84" viewBox="0 0 63 84">
    <path id="prefix__file-pdf-solid" d="M29.843 42.016c-.82-2.625-.8-7.695-.328-7.695 1.378.001 1.247 6.055.328 7.695zm-.279 7.744A75.7 75.7 0 0 1 24.9 60.047c3-1.148 6.4-2.822 10.32-3.593a21.252 21.252 0 0 1-5.66-6.694zM14.126 70.235c0 .131 2.166-.886 5.726-6.6-1.1 1.038-4.775 4.024-5.726 6.6zM40.688 26.25H63v53.813A3.928 3.928 0 0 1 59.063 84H3.938A3.928 3.928 0 0 1 0 80.063V3.938A3.928 3.928 0 0 1 3.938 0H36.75v22.313a3.949 3.949 0 0 0 3.938 3.937zm-1.313 28.186a16.466 16.466 0 0 1-7.005-8.827c.738-3.035 1.9-7.645 1.017-10.533-.771-4.823-6.956-4.348-7.842-1.116-.82 3-.066 7.235 1.329 12.633A154.059 154.059 0 0 1 20.18 60.67c-.016 0-.016.016-.033.016-4.446 2.28-12.075 7.3-8.941 11.156a5.1 5.1 0 0 0 3.527 1.641c2.937 0 5.857-2.953 10.024-10.139 4.233-1.395 8.876-3.134 12.961-3.806 3.56 1.936 7.727 3.2 10.5 3.2 4.791 0 5.119-5.25 3.232-7.12-2.28-2.232-8.909-1.592-12.075-1.182zm22.477-37.209L45.773 1.148A3.935 3.935 0 0 0 42.984 0H42v21h21v-1a3.925 3.925 0 0 0-1.148-2.773zM49.695 59.112c.673-.443-.41-1.952-7.022-1.477 6.086 2.592 7.022 1.477 7.022 1.477z" style="fill:#575552"/>
</svg>
