<svg xmlns="http://www.w3.org/2000/svg" width="141.201" height="141.201" viewBox="0 0 141.201 141.201">
    <path id="prefix__user-circle-solid" d="M70.6 8a70.6 70.6 0 1 0 70.6 70.6A70.588 70.588 0 0 0 70.6 8zm0 27.329a25.052 25.052 0 1 1-25.051 25.052A25.052 25.052 0 0 1 70.6 35.329zm0 97.93a54.552 54.552 0 0 1-41.706-19.415A31.74 31.74 0 0 1 56.936 96.82a6.966 6.966 0 0 1 2.021.313A37.692 37.692 0 0 0 70.6 99.1a37.549 37.549 0 0 0 11.643-1.964 6.966 6.966 0 0 1 2.021-.313 31.74 31.74 0 0 1 28.041 17.024A54.552 54.552 0 0 1 70.6 133.259z" transform="translate(0 -8)" style="fill:#575552"/>
</svg>
